<?xml version="1.0" encoding="UTF-8" standalone="no"?>
<svg
   xmlns:dc="http://purl.org/dc/elements/1.1/"
   xmlns:cc="http://creativecommons.org/ns#"
   xmlns:rdf="http://www.w3.org/1999/02/22-rdf-syntax-ns#"
   xmlns:svg="http://www.w3.org/2000/svg"
   xmlns="http://www.w3.org/2000/svg"
   xmlns:sodipodi="http://sodipodi.sourceforge.net/DTD/sodipodi-0.dtd"
   xmlns:inkscape="http://www.inkscape.org/namespaces/inkscape"
   id="emoji"
   viewBox="0 0 72 72"
   version="1.1"
   sodipodi:docname="favicon.svg"
   inkscape:version="1.0.2 (e86c870879, 2021-01-15)">
  <metadata
     id="metadata33">
    <rdf:RDF>
      <cc:Work
         rdf:about="">
        <dc:format>image/svg+xml</dc:format>
        <dc:type
           rdf:resource="http://purl.org/dc/dcmitype/StillImage" />
        <dc:title></dc:title>
      </cc:Work>
    </rdf:RDF>
  </metadata>
  <defs
     id="defs31" />
  <sodipodi:namedview
     pagecolor="#ffffff"
     bordercolor="#666666"
     borderopacity="1"
     objecttolerance="10"
     gridtolerance="10"
     guidetolerance="10"
     inkscape:pageopacity="0"
     inkscape:pageshadow="2"
     inkscape:window-width="1916"
     inkscape:window-height="1036"
     id="namedview29"
     showgrid="false"
     inkscape:zoom="6.1736111"
     inkscape:cx="21.849929"
     inkscape:cy="37.983533"
     inkscape:window-x="1920"
     inkscape:window-y="20"
     inkscape:window-maximized="0"
     inkscape:current-layer="emoji" />
  <g
     id="color"
     transform="matrix(1.2511768,0,0,1.2511768,-8.6132344,-8.893212)">
    <ellipse
       cx="34.152802"
       cy="34.634602"
       rx="29.0327"
       ry="22.118"
       transform="rotate(-51.131,34.152737,34.634677)"
       fill="#fcea2b"
       id="ellipse2" />
    <path
       fill="#ffffff"
       d="m 52.1386,12.03 a 18.6978,18.6978 0 0 0 -13.3,-3.8592 17.98,17.98 0 0 1 10.0775,3.8592 c 9.5107,7.6656 9.0636,24 -0.9986,36.4842 -6.14,7.6178 -14.44,12.034 -22.14,12.5837 8.5313,0.6389 18.354,-3.8885 25.3623,-12.5837 C 61.2023,36.03 61.6494,19.6954 52.1386,12.03 Z"
       id="path4" />
    <path
       fill="#f1b31c"
       d="m 55.3488,13.082 c -0.4942,-0.3984 -1.0176,-0.7812 -1.5577,-1.1377 a 0.9281,0.9281 0 0 0 -0.1108,-0.045 1.03,1.03 0 0 0 -0.5558,-0.1024 0.9231,0.9231 0 0 0 -0.5263,0.2355 0.9427,0.9427 0 0 0 -0.0942,0.0682 c -0.0189,0.0205 -0.0247,0.047 -0.0417,0.0686 -0.017,0.0216 -0.0414,0.0338 -0.0569,0.0573 a 0.9449,0.9449 0 0 0 -0.0443,0.1094 1.0267,1.0267 0 0 0 -0.1021,0.5619 0.9782,0.9782 0 0 0 0.0434,0.183 0.8341,0.8341 0 0 0 0.1891,0.3358 0.9413,0.9413 0 0 0 0.07,0.0971 c 8.2785,7.6363 7.4152,22.7363 -1.9647,34.375 -9.7021,12.0351 -24.97,15.88 -34.0342,8.5732 a 0.9608,0.9608 0 0 0 -0.1862,-0.0967 c -0.019,-0.01 -0.0363,-0.02 -0.0557,-0.0289 a 0.97,0.97 0 0 0 -0.3,-0.0741 c -0.027,-0.0026 -0.0525,-0.0064 -0.08,-0.0068 a 0.9161,0.9161 0 0 0 -0.5906,0.1954 0.94,0.94 0 0 0 -0.0972,0.058 c -0.0193,0.0174 -0.0268,0.0415 -0.0444,0.06 -0.0158,0.0171 -0.0375,0.0251 -0.0523,0.0435 a 0.9354,0.9354 0 0 0 -0.0473,0.091 0.9593,0.9593 0 0 0 -0.1171,0.2256 0.9341,0.9341 0 0 0 -0.024,0.097 0.9719,0.9719 0 0 0 -0.0255,0.2966 c 0.0017,0.02 0.0056,0.0386 0.0084,0.0585 a 0.9646,0.9646 0 0 0 0.0962,0.312 c 0.0079,0.0157 0.0178,0.0295 0.0266,0.0447 a 0.9534,0.9534 0 0 0 0.109,0.1832 20.0687,20.0687 0 0 0 2.2862,2.1582 21.13,21.13 0 0 0 13.4413,4.5547 c 8.59,0 17.8906,-4.48 24.5283,-12.7149 C 65.882,38.9619 65.841,21.539 55.3488,13.082 Z"
       id="path6" />
    <path
       fill="#f1b31c"
       d="m 20.6524,44.72 c 0.0722,-0.2316 0.6087,-2.2138 0.6809,-2.4455 5.9173,0.1054 6.209,-0.0917 7.0882,-3.008 1.661,-5.5087 2.1449,-6.4941 3.8058,-12.0028 0.5824,-1.9314 0.4791,-2.3538 -2.29,-2.882 L 28.25,24.0707 c 0.063,-0.2034 0.4414,-2.0746 0.5044,-2.278 a 94.249,94.249 0 0 0 12.214,-0.7883 l -5.4991,19 c -0.8584,2.9659 -0.7526,3.2031 4.9288,4.3013 -0.0656,0.2347 -0.5987,2.2183 -0.6642,2.453 z"
       id="path8" />
  </g>
  <g
     id="line"
     transform="matrix(1.2511768,0,0,1.2511768,-8.6132344,-8.893212)">
    <path
       fill="none"
       stroke="#000000"
       stroke-miterlimit="10"
       stroke-width="2"
       d="m 53.2375,12.777 q 0.7611,0.5013 1.4822,1.0818 c 10.08,8.1245 10.0527,24.8829 -0.061,37.4308 C 44.545,63.8375 28.1748,67.4234 18.0948,59.2988 a 19.09,19.09 0 0 1 -2.172,-2.05"
       id="path11" />
    <ellipse
       cx="34.152802"
       cy="34.634602"
       rx="29.0327"
       ry="22.118"
       transform="rotate(-51.131,34.152737,34.634677)"
       fill="none"
       stroke="#000000"
       stroke-miterlimit="10"
       stroke-width="2"
       id="ellipse13" />
    <line
       x1="51.373402"
       x2="54.658699"
       y1="48.514599"
       y2="51.2896"
       fill="none"
       stroke="#000000"
       stroke-miterlimit="10"
       stroke-width="2"
       id="line15" />
    <line
       x1="47.915501"
       x2="50.812199"
       y1="52.260201"
       y2="55.372501"
       fill="none"
       stroke="#000000"
       stroke-miterlimit="10"
       stroke-width="2"
       id="line17" />
    <line
       x1="44.257301"
       x2="46.635101"
       y1="55.3041"
       y2="58.626301"
       fill="none"
       stroke="#000000"
       stroke-miterlimit="10"
       stroke-width="2"
       id="line19" />
    <line
       x1="40.242699"
       x2="42.115501"
       y1="57.981899"
       y2="61.326302"
       fill="none"
       stroke="#000000"
       stroke-miterlimit="10"
       stroke-width="2"
       id="line21" />
    <line
       x1="54.035599"
       x2="57.524502"
       y1="44.774502"
       y2="47.188702"
       fill="none"
       stroke="#000000"
       stroke-miterlimit="10"
       stroke-width="2"
       id="line23" />
    <path
       fill="none"
       stroke="#000000"
       stroke-linecap="round"
       stroke-linejoin="round"
       stroke-width="2"
       d="m 20.6524,44.72 c 0.0722,-0.2316 0.6087,-2.2138 0.6809,-2.4455 5.9173,0.1054 6.209,-0.0917 7.0882,-3.008 1.661,-5.5087 2.1449,-6.4941 3.8058,-12.0028 0.5824,-1.9314 0.4791,-2.3538 -2.29,-2.882 L 28.25,24.0707 c 0.063,-0.2034 0.4414,-2.0746 0.5044,-2.278 a 94.249,94.249 0 0 0 12.214,-0.7883 l -5.4991,19 c -0.8584,2.9659 -0.7526,3.2031 4.9288,4.3013 -0.0656,0.2347 -0.5987,2.2183 -0.6642,2.453 z"
       id="path25" />
  </g>
</svg>
